<svg width="12" height="12" viewBox="0 0 12 12" fill="none" xmlns="http://www.w3.org/2000/svg" stroke='white' stroke-width='0'>
<path fill-rule="evenodd" clip-rule="evenodd" d="M10.8333 6.83342H6.66667V11.0001C6.66667 11.4584 6.29167 11.8334 5.83333 11.8334C5.375 11.8334 5 11.4584 5 11.0001V6.83342H0.833333C0.375 6.83342 0 6.45842 0 6.00008C0 5.54175 0.375 5.16675 0.833333 5.16675H5V1.00008C5 0.541748 5.375 0.166748 5.83333 0.166748C6.29167 0.166748 6.66667 0.541748 6.66667 1.00008V5.16675H10.8333C11.2917 5.16675 11.6667 5.54175 11.6667 6.00008C11.6667 6.45842 11.2917 6.83342 10.8333 6.83342Z" fill="white"/>
</svg>
